<?xml version="1.0" standalone="no"?><!DOCTYPE svg PUBLIC "-//W3C//DTD SVG 1.1//EN" "http://www.w3.org/Graphics/SVG/1.1/DTD/svg11.dtd"><svg class="icon" width="200px" height="200.00px" viewBox="0 0 1024 1024" version="1.1" xmlns="http://www.w3.org/2000/svg"><path d="M512 0c282.763636 0 512 229.236364 512 512S794.763636 1024 512 1024 0 794.763636 0 512 229.236364 0 512 0z m0 11.636364C235.659636 11.636364 11.636364 235.659636 11.636364 512s224.023273 500.363636 500.363636 500.363636 500.363636-224.023273 500.363636-500.363636S788.340364 11.636364 512 11.636364z m-110.138182 422.109091c38.376727 6.632727 63.755636 22.853818 103.121455 61.556363l7.563636 7.528727 19.502546 19.921455c4.736 4.770909 9.262545 9.216 13.637818 13.370182l6.434909 6.004363 3.141818 2.839273 6.132364 5.352727c30.196364 25.728 53.946182 35.735273 87.226181 36.38691 69.992727 1.373091 119.936-22.016 150.621091-70.260364l2.106182-3.397818 9.960727 6.004363c-32.756364 54.318545-87.342545 80.779636-162.90909 79.290182-41.262545-0.814545-68.817455-14.650182-107.322182-50.583273l-6.714182-6.376727-6.958546-6.818909-7.226181-7.272727-15.709091-16.069818-7.284364-7.261091c-37.911273-37.329455-61.777455-52.596364-97.314909-58.740364-67.397818-11.659636-122.705455 10.24-166.725818 66.106182l-2.792727 3.607273-9.262546-7.028364c47.045818-61.952 107.589818-86.807273 180.770909-74.158545z" /></svg>