<?xml version="1.0" standalone="no"?><!DOCTYPE svg PUBLIC "-//W3C//DTD SVG 1.1//EN" "http://www.w3.org/Graphics/SVG/1.1/DTD/svg11.dtd"><svg class="icon" width="200px" height="200.00px" viewBox="0 0 1024 1024" version="1.1" xmlns="http://www.w3.org/2000/svg"><path d="M571.534884 1012.093023v11.906977h-107.162791v-11.906977h107.162791z m35.72093-59.534883v11.906976H428.651163v-11.906976h178.604651z m-89.302326-797.767442l29.767442 59.534883h-23.813953v107.162791h83.348837v452.465116h-83.348837v119.069768h119.069767v11.906977H392.930233v-11.906977h119.069767V773.953488h-83.348837V321.488372h83.348837v-107.162791h-23.813953l29.767441-59.534883zM595.348837 631.069767H440.55814v130.976745h154.790697V631.069767z m0-154.790697H440.55814v142.883721h154.790697V476.27907z m0-142.883721H440.55814v130.976744h154.790697V333.395349zM523.906977 0v71.44186h23.813953l-29.767442 59.534884L488.186047 71.44186h23.813953V0h11.906977z" /></svg>