<?xml version="1.0" standalone="no"?><!DOCTYPE svg PUBLIC "-//W3C//DTD SVG 1.1//EN" "http://www.w3.org/Graphics/SVG/1.1/DTD/svg11.dtd"><svg class="icon" width="200px" height="200.00px" viewBox="0 0 1024 1024" version="1.1" xmlns="http://www.w3.org/2000/svg"><path d="M627.330977 893.023256l8.358697 8.477767L513.190698 1022.285395 392.930233 901.465302l8.442046-8.406325 111.877954 112.437581L627.31907 893.023256z m0-119.069768l8.358697 8.477768L513.190698 903.215628 392.930233 782.395535l8.442046-8.406326 111.877954 112.437582L627.31907 773.953488zM648.930233 327.44186v369.11628h-273.860466v-369.11628h273.860466z m-11.906977 11.906977h-250.046512v345.302326h250.046512v-345.302326zM513.190698 119.069767l122.498976 120.784373-8.358697 8.477767-114.068837-112.473302-111.889861 112.437581-8.442046-8.406326L513.190698 119.069767z m0-119.069767l122.498976 120.784372-8.358697 8.477768-114.068837-112.473303-111.889861 112.437582-8.442046-8.406326L513.190698 0z" /></svg>