<?xml version="1.0" standalone="no"?><!DOCTYPE svg PUBLIC "-//W3C//DTD SVG 1.1//EN" "http://www.w3.org/Graphics/SVG/1.1/DTD/svg11.dtd"><svg class="icon" width="200px" height="200.00px" viewBox="0 0 1024 1024" version="1.1" xmlns="http://www.w3.org/2000/svg"><path d="M517.829818 930.781091L517.818182 1024h-11.636364v-93.218909C438.190545 927.732364 384 871.656727 384 802.909091s54.190545-124.823273 122.181818-127.872V639.883636C438.190545 636.823273 384 580.747636 384 512s54.190545-124.823273 122.181818-127.872V360.610909C438.190545 357.550545 384 301.474909 384 232.727273S438.190545 107.904 506.181818 104.855273V0h11.636364l0.011636 104.855273c66.397091 2.978909 119.621818 56.529455 122.077091 123.054545h80.686546L755.432727 159.418182l10.368 5.271273-32.162909 63.220363h68.410182L836.887273 159.418182l10.368 5.271273-32.162909 63.220363H866.909091v11.636364h-57.739636l-42.123637 82.850909-10.379636-5.282909 39.458909-77.568h-68.410182l-42.123636 82.850909-10.379637-5.282909 39.458909-77.568-74.84509 0.011636c-3.456 65.582545-56.273455 118.097455-121.995637 121.041455v23.528727c66.397091 2.978909 119.621818 56.529455 122.077091 123.054545h80.686546L755.432727 438.690909l10.368 5.271273-32.162909 63.220363h68.410182L836.887273 438.690909l10.368 5.271273-32.162909 63.220363H866.909091v11.636364h-57.739636l-42.123637 82.850909-10.379636-5.282909 39.458909-77.568h-68.410182l-42.123636 82.850909-10.379637-5.282909 39.458909-77.568-74.84509 0.011636c-3.456 65.582545-56.273455 118.097455-121.995637 121.041455v35.165091c66.397091 2.978909 119.621818 56.529455 122.077091 123.054545h80.686546L755.432727 729.6l10.368 5.271273-32.162909 63.220363h68.410182L836.887273 729.6l10.368 5.271273-32.162909 63.220363H866.909091v11.636364h-57.739636l-42.123637 82.850909-10.379636-5.282909 39.458909-77.568h-68.410182l-42.123636 82.850909-10.379637-5.282909 39.458909-77.568-74.84509 0.011636c-3.456 65.582545-56.273455 118.097455-121.995637 121.041455zM395.636364 802.909091c0 62.312727 48.989091 113.186909 110.545454 116.224V686.685091c-61.556364 3.025455-110.545455 53.911273-110.545454 116.224z m122.193454-116.224v232.448C579.386182 916.096 628.363636 865.221818 628.363636 802.909091c0-62.312727-48.977455-113.186909-110.533818-116.224zM395.636364 512c0 62.312727 48.989091 113.186909 110.545454 116.224V395.776c-61.556364 3.025455-110.545455 53.911273-110.545454 116.224z m122.193454-116.224v232.448C579.386182 625.186909 628.363636 574.312727 628.363636 512c0-62.312727-48.977455-113.186909-110.533818-116.224zM395.636364 232.727273c0 62.312727 48.989091 113.186909 110.545454 116.224V116.503273c-61.556364 3.025455-110.545455 53.911273-110.545454 116.224z m122.193454-116.224v232.448C579.386182 345.914182 628.363636 295.04 628.363636 232.727273c0-62.312727-48.977455-113.186909-110.533818-116.224z" /></svg>