<?xml version="1.0" standalone="no"?><!DOCTYPE svg PUBLIC "-//W3C//DTD SVG 1.1//EN" "http://www.w3.org/Graphics/SVG/1.1/DTD/svg11.dtd"><svg class="icon" width="200px" height="200.00px" viewBox="0 0 1024 1024" version="1.1" xmlns="http://www.w3.org/2000/svg"><path d="M1023.261031 318.960165L762.172701 713.907464H0.717856l262.070103-394.947299H1023.261031zM268.140206 580.681897H101.766598l-81.381608 122.668866h166.384165l81.371051-122.668866z m569.428454 0H660.849485l-81.381609 122.668866H756.493196l81.075464-122.668866z m-189.387217 0H460.272165l-81.381608 122.668866h187.919835l81.371051-122.668866z m-200.577319 0H280.808247l-81.381608 122.668866h166.806433l81.371052-122.668866z m473.172453-125.867546H744.35299l-76.493856 115.310845h175.927423v1.161237l77.000577-116.472082z m-569.132866 0H185.291216l-76.514969 115.310845h166.373609l76.493855-115.310845z m179.463918 0h-166.795876l-76.504413 115.310845h166.806433l76.493856-115.310845z m200.577319 0h-187.909278l-76.504412 115.310845h187.919835l76.493855-115.310845z m-296.917773-125.308042H268.456907l-76.156041 114.75134h166.341938l76.124371-114.75134z m179.463918 0h-166.795877l-76.113814 114.75134h166.795876l76.113815-114.75134z m200.577319 0h-187.909278l-76.113814 114.75134h187.909278l76.113814-114.75134z m188.817155 0H827.476454l-76.113815 114.75134h176.402474l75.860454-114.75134z" /></svg>