<?xml version="1.0" standalone="no"?><!DOCTYPE svg PUBLIC "-//W3C//DTD SVG 1.1//EN" "http://www.w3.org/Graphics/SVG/1.1/DTD/svg11.dtd"><svg class="icon" width="200px" height="200.00px" viewBox="0 0 1024 1024" version="1.1" xmlns="http://www.w3.org/2000/svg"><path d="M516.740741 0v132.740741h18.962963a9.481481 9.481481 0 0 1 9.481481 9.481481v66.370371a9.481481 9.481481 0 0 1-9.481481 9.481481h-18.962963v156.842667a28.453926 28.453926 0 0 1 23.656296 26.377481L540.444444 402.962963a28.444444 28.444444 0 0 1-23.703703 28.046222V630.518519h94.814815a14.222222 14.222222 0 0 1 14.155851 12.856888L625.777778 644.740741v66.37037a14.222222 14.222222 0 0 1-12.856889 14.155852l-1.365333 0.06637h-94.814815V881.777778h66.37037L512 1024l-71.111111-142.222222h66.37037V725.333333h-94.814815a14.222222 14.222222 0 0 1-14.155851-12.856889L398.222222 711.111111v-66.37037a14.222222 14.222222 0 0 1 12.856889-14.155852l1.365333-0.06637h94.814815V431.018667a28.453926 28.453926 0 0 1-23.656296-26.386963L483.555556 402.962963a28.444444 28.444444 0 0 1 23.703703-28.055704V218.074074h-18.962963a9.481481 9.481481 0 0 1-9.481481-9.481481v-66.370371a9.481481 9.481481 0 0 1 9.481481-9.481481h18.962963V0h9.481482z m94.814815 640h-199.111112a4.740741 4.740741 0 0 0-4.664888 3.887407L407.703704 644.740741v66.37037a4.740741 4.740741 0 0 0 3.887407 4.664889l0.853333 0.075852h199.111112a4.740741 4.740741 0 0 0 4.664888-3.887408L616.296296 711.111111v-66.37037a4.740741 4.740741 0 0 0-3.887407-4.664889l-0.853333-0.075852z m-76.136297 20.214519c4.778667 0 8.760889 1.251556 11.832889 3.754666 2.588444 2.085926 4.266667 4.873481 5.063111 8.286815l0.284445 1.498074h-6.485334c-0.682667-2.673778-1.934222-4.608-3.811555-5.859555-1.820444-1.251556-4.152889-1.820444-6.997334-1.820445-4.266667 0-7.452444 1.422222-9.614222 4.380445-1.991111 2.616889-2.958222 6.257778-2.958222 10.922666 0 4.778667 0.967111 8.476444 2.901333 11.036445 2.104889 2.730667 5.404444 4.152889 9.841778 4.152889 2.901333 0 5.290667-0.739556 7.111111-2.104889 1.611852-1.28 2.825481-3.109926 3.650371-5.470815l0.445629-1.46963h6.485334c-0.910222 4.778667-3.015111 8.476444-6.371556 11.150222-3.128889 2.503111-6.883556 3.754667-11.264 3.754667-6.769778 0-11.832889-2.161778-15.132444-6.371555-2.901333-3.640889-4.323556-8.533333-4.323556-14.677334 0-6.030222 1.479111-10.979556 4.494222-14.734222 3.413333-4.323556 8.362667-6.428444 14.848-6.428444z m-22.471111 0.796444v5.688889h-13.312V701.62963h-6.656v-34.929778H479.668148v-5.688889h33.28zM611.555556 341.333333v33.583408a28.444444 28.444444 0 0 1 0 56.092444V464.592593h-9.481482v-33.573926a28.444444 28.444444 0 0 1 0-56.111408V341.333333h9.481482z m-189.62963 0v33.583408a28.444444 28.444444 0 0 1 0 56.092444V464.592593h-9.481482v-33.573926a28.444444 28.444444 0 0 1 0-56.111408V341.333333h9.481482z m-9.481482 43.264a18.962963 18.962963 0 0 0 0 36.73126v-36.73126z m189.62963 0a18.962963 18.962963 0 0 0 0 36.73126v-36.73126z m-94.814815 0a18.962963 18.962963 0 0 0 0 36.73126v-36.73126z m9.490963 0v36.73126a18.962963 18.962963 0 0 0 0-36.73126z m94.814815 0v36.73126a18.962963 18.962963 0 0 0 0-36.73126z m-189.62963 0v36.73126a18.962963 18.962963 0 0 0 0-36.73126z" /></svg>