<?xml version="1.0" standalone="no"?><!DOCTYPE svg PUBLIC "-//W3C//DTD SVG 1.1//EN" "http://www.w3.org/Graphics/SVG/1.1/DTD/svg11.dtd"><svg class="icon" width="200px" height="200.00px" viewBox="0 0 1024 1024" version="1.1" xmlns="http://www.w3.org/2000/svg"><path d="M891.694545 442.181818c71.947636 0 130.478545 60.578909 132.25891 136.005818l0.046545 3.549091h-11.508364c0-70.365091-54.085818-127.418182-120.808727-127.418182-65.629091 0-119.04 55.191273-120.762182 123.973819l-0.046545 3.444363h-6.202182l-5.306182 0.081455-0.034909-3.421091c-1.687273-68.957091-55.226182-124.078545-120.773818-124.078546-65.629091 0-119.028364 55.191273-120.762182 123.973819l-0.046545 3.444363h-6.202182l-5.294546 0.081455-0.046545-3.421091c-1.675636-68.957091-55.226182-124.078545-120.762182-124.078546-65.629091 0-119.04 55.191273-120.773818 123.973819l-0.034909 3.444363h-6.202182l-5.306182 0.081455-0.046545-3.421091c-1.675636-68.957091-55.226182-124.078545-120.762182-124.078546-65.629091 0-119.04 55.191273-120.773818 123.973819l-0.034909 3.444363H0C0 504.669091 59.229091 442.181818 132.305455 442.181818c59.52 0 109.998545 41.495273 126.568727 98.757818C275.409455 483.770182 325.818182 442.181818 385.442909 442.181818c59.508364 0 109.986909 41.495273 126.557091 98.757818C528.535273 483.770182 578.944 442.181818 638.557091 442.181818c59.508364 0 109.998545 41.495273 126.568727 98.757818C781.649455 483.770182 832.069818 442.181818 891.682909 442.181818z" /></svg>