<?xml version="1.0" standalone="no"?><!DOCTYPE svg PUBLIC "-//W3C//DTD SVG 1.1//EN" "http://www.w3.org/Graphics/SVG/1.1/DTD/svg11.dtd"><svg class="icon" width="200px" height="200.00px" viewBox="0 0 1024 1024" version="1.1" xmlns="http://www.w3.org/2000/svg"><path d="M975.918545 34.804364L962.792727 93.835636l-18.548363-16.849454L700.311273 290.909091H954.181818v11.636364H687.045818l-28.357818 24.878545c50.536727 8.145455 91.764364 46.464 106.437818 97.163636C781.649455 367.394909 832.069818 325.818182 891.682909 325.818182c71.959273 0 130.490182 60.578909 132.270546 136.005818l0.046545 3.549091h-11.508364c0-70.365091-54.085818-127.418182-120.808727-127.418182-65.629091 0-119.04 55.191273-120.762182 123.973818l-0.046545 3.444364h-6.202182l-5.306182 0.081454-0.034909-3.42109c-1.617455-66.199273-51.025455-119.645091-112.965818-123.81091l-127.767273 112.058182c-0.430545 3.828364-0.698182 7.714909-0.802909 11.636364l-0.046545 3.456h-6.202182l-5.294546 0.081454-0.046545-3.42109-0.034909-0.861091-490.705455 430.347636-7.668363-8.750545 497.175272-436.00291c-8.552727-61.649455-58.903273-108.811636-119.528727-108.811636-65.629091 0-119.04 55.191273-120.773818 123.973818l-0.034909 3.444364h-6.202182l-5.306182 0.081454-0.046545-3.42109c-1.675636-68.957091-55.226182-124.078545-120.762182-124.078546-65.629091 0-119.04 55.191273-120.773818 123.973818l-0.034909 3.444364H0C0 388.305455 59.229091 325.818182 132.305455 325.818182c59.52 0 109.998545 41.495273 126.568727 98.757818C275.409455 367.406545 325.818182 325.818182 385.442909 325.818182c59.508364 0 109.986909 41.495273 126.557091 98.757818C528.535273 367.406545 578.944 325.818182 638.557091 325.818182c1.419636 0 2.816 0.023273 4.212364 0.069818L669.393455 302.545455H69.818182v-11.636364h612.852363L935.575273 69.108364l-15.790546-14.324364 56.133818-19.979636zM1024 465.454545v302.545455h-11.636364V465.454545h11.636364zM11.636364 465.454545v302.545455H0V465.454545h11.636364z m510.347636-33.605818l106.554182-93.463272c-51.258182 4.445091-93.44 42.635636-106.554182 93.463272z" /></svg>