<?xml version="1.0" standalone="no"?><!DOCTYPE svg PUBLIC "-//W3C//DTD SVG 1.1//EN" "http://www.w3.org/Graphics/SVG/1.1/DTD/svg11.dtd"><svg class="icon" width="200px" height="200.00px" viewBox="0 0 1024 1024" version="1.1" xmlns="http://www.w3.org/2000/svg"><path d="M517.818182 0v145.536c116.200727 3.083636 209.454545 98.245818 209.454545 215.191273 0 28.672-5.608727 56.040727-15.790545 81.058909C807.168 463.674182 878.545455 549.317818 878.545455 651.636364c0 116.945455-93.253818 212.107636-209.454546 215.191272V1024h-11.636364V866.827636a214.562909 214.562909 0 0 1-145.454545-62.021818 214.574545 214.574545 0 0 1-145.454545 62.021818V1024h-11.636364V866.827636c-116.200727-3.072-209.454545-98.245818-209.454546-215.191272 0-102.318545 71.377455-187.962182 167.051637-209.850182A214.714182 214.714182 0 0 1 296.727273 360.727273c0-116.945455 93.253818-212.119273 209.454545-215.191273V0h11.636364z m188.904727 452.654545l-1.326545 2.746182c-28.194909 57.483636-81.268364 100.549818-145.175273 115.176728A214.714182 214.714182 0 0 1 576 651.636364c0 55.738182-21.178182 106.530909-55.947636 144.756363A202.984727 202.984727 0 0 0 663.272727 855.272727c112.465455 0 203.636364-91.170909 203.636364-203.636363 0-97.559273-68.596364-179.083636-160.186182-198.981819z m-389.434182 0l-1.210182 0.256C225.082182 473.250909 157.090909 554.507636 157.090909 651.636364c0 112.465455 91.170909 203.636364 203.636364 203.636363 55.842909 0 106.426182-22.469818 143.220363-58.88A214.458182 214.458182 0 0 1 448 651.636364c0-28.672 5.608727-56.040727 15.790545-81.058909-64.930909-14.859636-118.667636-59.066182-146.501818-117.934546z m231.296 120.238546l-2.036363 0.349091a216.820364 216.820364 0 0 1-71.133091-0.349091A202.984727 202.984727 0 0 0 459.636364 651.636364c0 52.433455 19.816727 100.235636 52.363636 136.331636A202.926545 202.926545 0 0 0 564.363636 651.636364c0-27.915636-5.620364-54.516364-15.778909-78.743273zM512 515.304727a204.427636 204.427636 0 0 0-31.592727 46.615273 205.184 205.184 0 0 0 63.185454 0A203.880727 203.880727 0 0 0 512 515.316364zM360.727273 448c-10.740364 0-21.294545 0.826182-31.581091 2.443636 26.996364 54.946909 78.045091 95.941818 139.403636 109.265455a215.726545 215.726545 0 0 1 35.397818-52.829091A202.984727 202.984727 0 0 0 360.727273 448z m302.545454 0a202.984727 202.984727 0 0 0-143.220363 58.88 215.493818 215.493818 0 0 1 35.386181 52.829091c61.370182-13.323636 112.407273-54.318545 139.42691-109.265455A204.602182 204.602182 0 0 0 663.272727 448z m-151.272727-290.909091c-112.465455 0-203.636364 91.170909-203.636364 203.636364 0 27.915636 5.620364 54.516364 15.778909 78.743272A215.691636 215.691636 0 0 1 360.727273 436.363636a214.574545 214.574545 0 0 1 151.272727 62.114909A214.504727 214.504727 0 0 1 663.272727 436.363636c12.474182 0 24.692364 1.058909 36.584728 3.095273A202.984727 202.984727 0 0 0 715.636364 360.727273c0-112.465455-91.170909-203.636364-203.636364-203.636364z" /></svg>