<?xml version="1.0" standalone="no"?><!DOCTYPE svg PUBLIC "-//W3C//DTD SVG 1.1//EN" "http://www.w3.org/Graphics/SVG/1.1/DTD/svg11.dtd"><svg class="icon" width="200px" height="200.00px" viewBox="0 0 1024 1024" version="1.1" xmlns="http://www.w3.org/2000/svg"><path d="M512 500.093023c85.492093 0 154.790698 69.298605 154.790698 154.790698 0 41.59107-16.407814 79.36-43.103256 107.162791A154.219163 154.219163 0 0 1 666.790698 869.209302c0 85.492093-69.298605 154.790698-154.790698 154.790698s-154.790698-69.298605-154.790698-154.790698c0-41.59107 16.395907-79.348093 43.091349-107.16279A154.290605 154.290605 0 0 1 357.209302 654.883721c0-85.492093 69.298605-154.790698 154.790698-154.790698z m103.114419 270.21693l-1.095442 0.98828A154.195349 154.195349 0 0 1 512 809.674419c-39.614512 0-75.740279-14.883721-103.114419-39.352559A142.336 142.336 0 0 0 369.116279 869.209302c0 78.907535 63.976186 142.883721 142.883721 142.883721s142.883721-63.976186 142.883721-142.883721a142.407442 142.407442 0 0 0-39.769302-98.899349zM512 726.325581a142.347907 142.347907 0 0 0-94.505674 35.720931A142.288372 142.288372 0 0 0 512 797.767442c36.23293 0 69.322419-13.490605 94.505674-35.72093A142.288372 142.288372 0 0 0 512 726.325581z m0-214.325581c-78.907535 0-142.883721 63.976186-142.883721 142.883721a142.407442 142.407442 0 0 0 39.769302 98.899349A154.171535 154.171535 0 0 1 512 714.418605c39.614512 0 75.740279 14.883721 103.114419 39.352558A142.336 142.336 0 0 0 654.883721 654.883721c0-78.907535-63.976186-142.883721-142.883721-142.883721z m11.906977-512v202.418605h83.348837v202.418604h-83.348837v95.255814h-11.906977v-95.255814h-83.348837V202.418605h83.348837V0h11.906977z m-11.906977 214.325581h-71.44186v178.604652h71.44186V214.325581z m83.348837 0h-71.44186v178.604652h71.44186V214.325581z" /></svg>