<?xml version="1.0" standalone="no"?><!DOCTYPE svg PUBLIC "-//W3C//DTD SVG 1.1//EN" "http://www.w3.org/Graphics/SVG/1.1/DTD/svg11.dtd"><svg class="icon" width="200px" height="200.00px" viewBox="0 0 1024 1024" version="1.1" xmlns="http://www.w3.org/2000/svg"><path d="M884.363636 360.727273v302.545454h-11.636363V512H674.909091v-11.636364h-0.221091a75.636364 75.636364 0 0 0-144.872727-24.145454l-1.128728 2.769454L520.436364 500.363636h-5.236364l-8.226909-21.364363a75.659636 75.659636 0 0 0-67.572364-48.395637L436.363636 430.545455a75.613091 75.613091 0 0 0-69.457454 45.672727l-1.128727 2.769454L357.527273 500.363636h-5.236364l-8.226909-21.364363a75.659636 75.659636 0 0 0-67.572364-48.395637L273.454545 430.545455a75.636364 75.636364 0 0 0-75.415272 69.818181v11.636364H0v-11.636364h186.368a87.272727 87.272727 0 0 1 168.552727-25.553454 87.307636 87.307636 0 0 1 162.909091 0A87.272727 87.272727 0 0 1 686.359273 500.363636H872.727273V360.727273h11.636363z m69.818182 46.545454v209.454546h-11.636363V407.272727h11.636363z m69.818182 46.545455v116.363636h-11.636364V453.818182h11.636364z" /></svg>