<?xml version="1.0" standalone="no"?><!DOCTYPE svg PUBLIC "-//W3C//DTD SVG 1.1//EN" "http://www.w3.org/Graphics/SVG/1.1/DTD/svg11.dtd"><svg class="icon" width="200px" height="200.00px" viewBox="0 0 1024 1024" version="1.1" xmlns="http://www.w3.org/2000/svg"><path d="M417.722182 761.634909V1024h-11.636364V907.636364H58.181818l168.203637-336.395637-131.968-66.676363 5.236363-10.379637 214.504727 108.369455-5.248 10.391273-72.15709-36.456728L77.009455 896h329.076363V761.634909h11.636364zM512 0l180.549818 361.088 105.088-53.085091 5.236364 10.391273-214.481455 108.369454-5.248-10.391272 99.013818-50.036364L512 26.018909 328.064 393.879273l67.549091 34.129454-5.248 10.391273-214.493091-108.369455 5.236364-10.391272 136.576 69.003636L512 0z m91.904 1024h-11.636364V761.634909h11.636364V896h343.074909L766.510545 535.063273l-85.026909 42.973091-5.248-10.391273 214.493091-108.369455 5.236364 10.391273-119.051636 60.136727L965.818182 907.636364H603.904v116.363636z" /></svg>