<?xml version="1.0" standalone="no"?><!DOCTYPE svg PUBLIC "-//W3C//DTD SVG 1.1//EN" "http://www.w3.org/Graphics/SVG/1.1/DTD/svg11.dtd"><svg class="icon" width="200px" height="200.00px" viewBox="0 0 1024 1024" version="1.1" xmlns="http://www.w3.org/2000/svg"><path d="M1024 465.454545v302.545455h-11.636364V465.454545h11.636364zM11.636364 465.454545v302.545455H0V465.454545h11.636364z m880.058181-139.636363c71.947636 0 130.478545 60.578909 132.25891 136.005818l0.046545 3.549091h-11.508364c0-70.365091-54.085818-127.418182-120.808727-127.418182-65.629091 0-119.04 55.191273-120.762182 123.973818l-0.046545 3.444364h-6.202182l-5.306182 0.081454-0.034909-3.42109c-1.687273-68.957091-55.226182-124.078545-120.773818-124.078546-65.629091 0-119.028364 55.191273-120.762182 123.973818l-0.046545 3.444364h-6.202182l-5.294546 0.081454-0.046545-3.42109c-1.675636-68.957091-55.226182-124.078545-120.762182-124.078546-65.629091 0-119.04 55.191273-120.773818 123.973818l-0.034909 3.444364h-6.202182l-5.306182 0.081454-0.046545-3.42109c-1.675636-68.957091-55.226182-124.078545-120.762182-124.078546-65.629091 0-119.04 55.191273-120.773818 123.973818l-0.034909 3.444364H0C0 388.305455 59.229091 325.818182 132.305455 325.818182c59.52 0 109.998545 41.495273 126.568727 98.757818C275.409455 367.406545 325.818182 325.818182 385.442909 325.818182c59.508364 0 109.986909 41.495273 126.557091 98.757818C528.535273 367.406545 578.944 325.818182 638.557091 325.818182c59.508364 0 109.998545 41.495273 126.568727 98.757818C781.649455 367.406545 832.069818 325.818182 891.682909 325.818182zM954.181818 290.909091v11.636364H69.818182v-11.636364h884.363636z" /></svg>