<?xml version="1.0" standalone="no"?><!DOCTYPE svg PUBLIC "-//W3C//DTD SVG 1.1//EN" "http://www.w3.org/Graphics/SVG/1.1/DTD/svg11.dtd"><svg class="icon" width="200px" height="200.00px" viewBox="0 0 1024 1024" version="1.1" xmlns="http://www.w3.org/2000/svg"><path d="M512 0c282.763636 0 512 229.236364 512 512S794.763636 1024 512 1024 0 794.763636 0 512 229.236364 0 512 0z m-8.843636 510.126545l-359.156364 323.49091C233.588364 936.040727 365.242182 1000.727273 512 1000.727273c142.510545 0 270.778182-60.997818 360.098909-158.301091L503.156364 510.126545z m367.069091-330.58909L511.848727 502.295273l368.023273 331.461818A486.865455 486.865455 0 0 0 1000.727273 512c0-128.407273-49.524364-245.248-130.501818-332.462545zM23.272727 512a486.749091 486.749091 0 0 0 113.175273 312.762182l358.016-322.466909-348.625455-314.007273A486.877091 486.877091 0 0 0 23.272727 512zM512 23.272727C370.420364 23.272727 242.909091 83.467636 153.646545 179.665455L503.156364 494.475636l359.04-323.374545C773.410909 79.918545 649.320727 23.272727 512 23.272727z" /></svg>