<?xml version="1.0" standalone="no"?><!DOCTYPE svg PUBLIC "-//W3C//DTD SVG 1.1//EN" "http://www.w3.org/Graphics/SVG/1.1/DTD/svg11.dtd"><svg class="icon" width="200px" height="200.00px" viewBox="0 0 1024 1024" version="1.1" xmlns="http://www.w3.org/2000/svg"><path d="M343.272727 0c141.498182 0 258.932364 103.098182 281.262546 238.277818A285.44 285.44 0 0 1 680.727273 232.727273C838.178909 232.727273 965.818182 360.366545 965.818182 517.818182S838.178909 802.909091 680.727273 802.909091c-19.979636 0-39.470545-2.059636-58.286546-5.957818C595.653818 926.568727 480.837818 1024 343.272727 1024 185.821091 1024 58.181818 896.360727 58.181818 738.909091c0-92.567273 44.125091-174.836364 112.477091-226.909091C102.306909 459.927273 58.181818 377.658182 58.181818 285.090909 58.181818 127.639273 185.821091 0 343.272727 0zM180.491636 519.168l-2.094545 1.559273C112.430545 570.647273 69.818182 649.809455 69.818182 738.909091 69.818182 889.937455 192.244364 1012.363636 343.272727 1012.363636c132.037818 0 242.210909-93.579636 267.834182-218.018909-109.009455-27.357091-193.105455-117.480727-211.642182-229.701818A285.44 285.44 0 0 1 343.272727 570.181818c-60.509091 0-116.619636-18.850909-162.781091-51.013818zM680.727273 244.363636c-18.676364 0-36.910545 1.861818-54.539637 5.434182 1.442909 11.566545 2.176 23.342545 2.176 35.293091 0 92.567273-44.125091 174.836364-112.477091 226.909091C584.238545 564.072727 628.363636 646.341818 628.363636 738.909091c0 15.860364-1.291636 31.418182-3.781818 46.580364A273.803636 273.803636 0 0 0 680.727273 791.272727C831.755636 791.272727 954.181818 668.846545 954.181818 517.818182S831.755636 244.363636 680.727273 244.363636zM506.065455 519.168l-1.582546 1.093818a283.682909 283.682909 0 0 1-93.637818 41.867637c17.536 107.671273 97.978182 194.234182 202.356364 220.741818 2.327273-14.312727 3.525818-28.997818 3.525818-43.962182 0-90.042182-43.52-169.914182-110.661818-219.741091zM343.272727 465.454545a272.174545 272.174545 0 0 0-152.645818 46.545455A272.058182 272.058182 0 0 0 343.272727 558.545455c18.676364 0 36.910545-1.861818 54.539637-5.434182a287.080727 287.080727 0 0 1 1.617454-81.873455A273.803636 273.803636 0 0 0 343.272727 465.454545z m67.514182 8.401455l-0.605091 3.956364a275.700364 275.700364 0 0 0-0.965818 72.727272 272.221091 272.221091 0 0 0 86.702545-38.528 271.732364 271.732364 0 0 0-85.131636-38.167272zM343.272727 11.636364C192.244364 11.636364 69.818182 134.062545 69.818182 285.090909c0 90.042182 43.52 169.914182 110.661818 219.741091A283.741091 283.741091 0 0 1 343.272727 453.818182c19.979636 0 39.470545 2.059636 58.286546 5.957818 22.260364-107.671273 105.262545-193.152 211.595636-218.996364C591.988364 110.836364 479.220364 11.636364 343.272727 11.636364z m271.511273 240.721454l-3.968 1.024c-99.607273 26.263273-176.989091 107.333818-197.922909 209.000727a283.578182 283.578182 0 0 1 93.160727 42.449455C573.207273 455.005091 616.727273 375.133091 616.727273 285.090909c0-11.077818-0.663273-21.992727-1.943273-32.733091z" /></svg>