<?xml version="1.0" standalone="no"?><!DOCTYPE svg PUBLIC "-//W3C//DTD SVG 1.1//EN" "http://www.w3.org/Graphics/SVG/1.1/DTD/svg11.dtd"><svg class="icon" width="200px" height="200.00px" viewBox="0 0 1024 1024" version="1.1" xmlns="http://www.w3.org/2000/svg"><path d="M917.410909 197.818182l-44.206545 86.551273-18.408728-16.896-63.732363 64.977454H1024v360.727273H437.236364L311.389091 821.504l-8.308364-8.145455L420.945455 693.178182H0v-360.727273h774.772364l71.458909-72.855273-20.561455-18.862545L917.422545 197.818182zM267.834182 344.087273H11.636364v337.454545h256.186181a87.272727 87.272727 0 0 1 84.25891-81.408l2.827636-0.046545c43.229091 0 79.127273 31.429818 86.062545 72.692363l3.002182-3.083636a87.389091 87.389091 0 0 1 66.176-67.467636L685.416727 423.563636a87.319273 87.319273 0 0 1-68.503272-79.476363h-0.372364a87.272727 87.272727 0 0 1-84.258909 81.408l-2.827637 0.046545a87.272727 87.272727 0 0 1-87.086545-81.454545h-0.372364a87.272727 87.272727 0 0 1-84.258909 81.408l-2.827636 0.046545a87.272727 87.272727 0 0 1-87.086546-81.454545z m523.636363 0h-0.372363a87.272727 87.272727 0 0 1-84.258909 81.408l-2.827637 0.046545c-1.396364 0-2.769455-0.034909-4.142545-0.093091L528.535273 600.087273h0.919272a87.272727 87.272727 0 0 1 87.086546 81.454545h0.372364a87.272727 87.272727 0 0 1 84.258909-81.419636l2.827636-0.046546a87.272727 87.272727 0 0 1 87.086545 81.454546h0.372364a87.272727 87.272727 0 0 1 84.258909-81.408l2.827637-0.046546a87.272727 87.272727 0 0 1 87.086545 81.454546H1012.363636v-337.454546h-46.731636a87.272727 87.272727 0 0 1-84.258909 81.408l-2.827636 0.046546a87.272727 87.272727 0 0 1-87.086546-81.454546z m-436.549818 267.636363a75.636364 75.636364 0 0 0-75.205818 67.572364l-0.209454 2.234182H430.312727l-0.162909-2.001455a75.648 75.648 0 0 0-72.529454-67.758545l-2.711273-0.046546z m174.545455 0c-4.608 0-9.111273 0.407273-13.498182 1.198546l-61.184 62.370909a75.636364 75.636364 0 0 0-0.523636 4.002909l-0.209455 2.234182H604.858182l-0.162909-2.001455a75.648 75.648 0 0 0-72.529455-67.758545l-2.711273-0.046546z m174.545454 0a75.636364 75.636364 0 0 0-75.205818 67.572364l-0.209454 2.234182H779.403636l-0.162909-2.001455a75.648 75.648 0 0 0-72.529454-67.758545l-2.711273-0.046546z m174.545455 0a75.636364 75.636364 0 0 0-75.205818 67.572364l-0.209455 2.234182H953.949091l-0.197818-2.234182a75.648 75.648 0 0 0-72.494546-67.525818l-2.711272-0.046546z m-414.324364 37.329455l25.658182-26.158546a76.020364 76.020364 0 0 0-25.658182 26.158546zM430.324364 344.087273H279.493818l0.209455 2.245818a75.648 75.648 0 0 0 72.494545 67.525818l2.711273 0.046546a75.636364 75.636364 0 0 0 75.217454-67.421091l0.197819-2.397091z m174.545454 0H454.039273l0.209454 2.245818a75.648 75.648 0 0 0 72.494546 67.525818l2.711272 0.046546a75.636364 75.636364 0 0 0 75.217455-67.421091l0.197818-2.397091z m349.079273 0H803.130182l0.209454 2.245818a75.648 75.648 0 0 0 72.494546 67.525818l2.711273 0.046546a75.636364 75.636364 0 0 0 75.205818-67.572364l0.197818-2.245818z m-174.557091 0.256l-67.84 69.189818a75.636364 75.636364 0 0 0 67.665455-67.048727l0.174545-2.141091z m-16.034909-0.256H628.584727l0.209455 2.245818a75.671273 75.671273 0 0 0 66.56 67.083636l68.002909-69.329454z" /></svg>