<?xml version="1.0" standalone="no"?><!DOCTYPE svg PUBLIC "-//W3C//DTD SVG 1.1//EN" "http://www.w3.org/Graphics/SVG/1.1/DTD/svg11.dtd"><svg class="icon" width="200px" height="200.00px" viewBox="0 0 1024 1024" version="1.1" xmlns="http://www.w3.org/2000/svg"><path d="M512 0c160.663273 0 290.909091 130.245818 290.909091 290.909091 0 88.482909-39.505455 167.738182-101.829818 221.090909C763.403636 565.352727 802.909091 644.608 802.909091 733.090909c0 160.663273-130.245818 290.909091-290.909091 290.909091S221.090909 893.754182 221.090909 733.090909c0-88.482909 39.505455-167.738182 101.829818-221.090909C260.596364 458.647273 221.090909 379.392 221.090909 290.909091 221.090909 130.245818 351.336727 0 512 0z m179.933091 519.505455l-0.989091 0.779636A289.652364 289.652364 0 0 1 512 581.818182a289.664 289.664 0 0 1-179.933091-62.301091C271.325091 570.728727 232.727273 647.400727 232.727273 733.090909c0 154.24 125.032727 279.272727 279.272727 279.272727s279.272727-125.032727 279.272727-279.272727c0-85.690182-38.586182-162.362182-99.339636-213.585454zM512 453.818182a278.062545 278.062545 0 0 0-170.635636 58.181818A277.992727 277.992727 0 0 0 512 570.181818a278.062545 278.062545 0 0 0 170.635636-58.181818A277.992727 277.992727 0 0 0 512 453.818182z m0-442.181818C357.76 11.636364 232.727273 136.669091 232.727273 290.909091c0 85.690182 38.586182 162.362182 99.339636 213.585454A289.605818 289.605818 0 0 1 512 442.181818a289.664 289.664 0 0 1 179.933091 62.301091C752.674909 453.271273 791.272727 376.599273 791.272727 290.909091 791.272727 136.669091 666.24 11.636364 512 11.636364z" /></svg>