<?xml version="1.0" standalone="no"?><!DOCTYPE svg PUBLIC "-//W3C//DTD SVG 1.1//EN" "http://www.w3.org/Graphics/SVG/1.1/DTD/svg11.dtd"><svg class="icon" width="200px" height="200.00px" viewBox="0 0 1024 1024" version="1.1" xmlns="http://www.w3.org/2000/svg"><path d="M517.818182 0v145.536c116.200727 3.083636 209.454545 98.245818 209.454545 215.191273 0 56.087273-21.445818 107.147636-56.576 145.454545A214.469818 214.469818 0 0 1 727.272727 651.636364c0 116.945455-93.253818 212.107636-209.454545 215.191272V1024h-11.636364V866.827636c-116.200727-3.072-209.454545-98.245818-209.454545-215.191272 0-56.075636 21.434182-107.136 56.564363-145.454546A214.551273 214.551273 0 0 1 296.727273 360.727273c0-116.945455 93.253818-212.119273 209.454545-215.191273V0h11.636364z m144.779636 514.56l-2.280727 2.187636A214.539636 214.539636 0 0 1 512 576a214.574545 214.574545 0 0 1-150.574545-61.44A202.821818 202.821818 0 0 0 308.363636 651.636364c0 112.465455 91.170909 203.636364 203.636364 203.636363S715.636364 764.101818 715.636364 651.636364c0-52.794182-20.096-100.887273-53.038546-137.076364zM512 448c-55.482182 0-105.774545 22.190545-142.510545 58.181818A202.938182 202.938182 0 0 0 512 564.363636c55.482182 0 105.774545-22.190545 142.510545-58.181818A202.938182 202.938182 0 0 0 512 448z m0-290.909091c-112.465455 0-203.636364 91.170909-203.636364 203.636364 0 52.794182 20.096 100.887273 53.038546 137.076363A214.574545 214.574545 0 0 1 512 436.363636a214.574545 214.574545 0 0 1 150.574545 61.44A202.821818 202.821818 0 0 0 715.636364 360.727273c0-112.465455-91.170909-203.636364-203.636364-203.636364z" /></svg>