<?xml version="1.0" standalone="no"?><!DOCTYPE svg PUBLIC "-//W3C//DTD SVG 1.1//EN" "http://www.w3.org/Graphics/SVG/1.1/DTD/svg11.dtd"><svg class="icon" width="200px" height="200.00px" viewBox="0 0 1024 1024" version="1.1" xmlns="http://www.w3.org/2000/svg"><path d="M607.255814 1012.093023v11.906977H416.744186v-11.906977h190.511628z m35.72093-59.534883v11.906976H381.023256v-11.906976h261.953488z m0-690.604652v11.906977H517.953488v71.537116C613.852279 348.541023 690.604651 427.258047 690.604651 523.906977s-76.764279 175.365953-172.651163 178.509395V893.023256H690.604651v11.906977H333.395349v-11.906977h172.651163V702.416372C410.159628 699.27293 333.395349 620.555907 333.395349 523.906977s76.764279-175.365953 172.651163-178.509396V273.860465H381.023256v-11.906977h261.953488zM514.298047 558.270512l-80.372094 112.949581A165.971349 165.971349 0 0 0 512 690.604651c29.553116 0 57.320186-7.691907 81.384186-21.194418l-79.086139-111.139721z m-113.092466-158.922419A166.292837 166.292837 0 0 0 345.302326 523.906977c0 59.582512 31.255814 111.866047 78.264558 141.335814l83.432186-117.236093-105.793489-148.658605z m224.386977 2.548093l-103.983628 146.110512 81.991442 115.2A166.554791 166.554791 0 0 0 678.697674 523.906977c0-48.175628-20.432372-91.564651-53.105116-122.010791zM512 357.209302a165.983256 165.983256 0 0 0-101.61414 34.530233l103.912187 146.003349 102.28093-143.669582A165.995163 165.995163 0 0 0 512 357.209302z m5.953488-357.209302v202.418605H666.790698v11.906976H357.209302v-11.906976h148.83721V0h11.906976z" /></svg>