<?xml version="1.0" standalone="no"?><!DOCTYPE svg PUBLIC "-//W3C//DTD SVG 1.1//EN" "http://www.w3.org/Graphics/SVG/1.1/DTD/svg11.dtd"><svg class="icon" width="200px" height="200.00px" viewBox="0 0 1024 1024" version="1.1" xmlns="http://www.w3.org/2000/svg"><path d="M294.4 0l0.0256 230.6816c147.1232 6.6048 264.8576 126.08 268.672 273.92L563.2 512l-0.1024 7.424c-3.8144 147.8144-121.5488 267.2896-268.672 273.8944V1024h-25.6512l0.0256-230.6816C119.2192 786.6112 0 663.2448 0 512S119.2192 237.3888 268.8 230.6816V0h25.6z m-25.6 256.3072C133.376 262.9632 25.6 374.912 25.6 512c0 137.088 107.776 249.0112 243.2 255.6928V256.3072z m25.6256 0v511.3856C429.8496 761.0112 537.6 649.088 537.6 512c0-137.088-107.7504-249.0112-243.1744-255.6928z m650.752 94.4128l22.784 11.5968-70.7584 139.0848H1011.2v25.6h-127.0272l-92.672 182.272-22.8352-11.6224 86.8096-170.6496h-150.5024l-92.672 182.272-22.8352-11.6224 86.8096-170.6496-113.0752 0.0256v-25.6256h126.1056L765.952 350.72l22.8096 11.5968-70.7584 139.0848h150.5024L945.152 350.72z" /></svg>