<?xml version="1.0" standalone="no"?><!DOCTYPE svg PUBLIC "-//W3C//DTD SVG 1.1//EN" "http://www.w3.org/Graphics/SVG/1.1/DTD/svg11.dtd"><svg class="icon" width="200px" height="200.00px" viewBox="0 0 1024 1024" version="1.1" xmlns="http://www.w3.org/2000/svg"><path d="M520 0l0.016 144.176C613.504 148.368 688 225.488 688 320c0 94.512-74.496 171.632-167.984 175.824v32.352C613.504 532.368 688 609.488 688 704c0 94.512-74.496 171.632-167.984 175.824V1024h-16.032l0.016-144.176C410.512 875.632 336 798.528 336 704s74.512-171.632 168-175.824V495.84C410.512 491.632 336 414.528 336 320S410.512 148.368 504 144.176V0h16z m-16 544.192c-84.64 4.16-152 74.128-152 159.808 0 85.68 67.36 155.632 152 159.808V544.192z m16.016 0v319.616C604.656 859.632 672 789.68 672 704c0-85.68-67.344-155.632-151.984-159.808z m-16.016-384c-84.64 4.16-152 74.128-152 159.808 0 85.68 67.36 155.632 152 159.808V160.192z m16.016 0v319.616C604.656 475.632 672 405.68 672 320c0-85.68-67.344-155.632-151.984-159.808z" /></svg>