<?xml version="1.0" standalone="no"?><!DOCTYPE svg PUBLIC "-//W3C//DTD SVG 1.1//EN" "http://www.w3.org/Graphics/SVG/1.1/DTD/svg11.dtd"><svg class="icon" width="200px" height="200.00px" viewBox="0 0 1024 1024" version="1.1" xmlns="http://www.w3.org/2000/svg"><path d="M506.181818 0v250.251636l2.827637 0.069819c139.159273 4.514909 250.88 117.632 253.137454 257.349818L762.181818 512c0 141.707636-112.581818 257.117091-253.172363 261.678545l-2.827637 0.058182V1024h-11.636363V762.181818h5.818181c138.170182 0 250.181818-112.011636 250.181819-250.181818 0-135.412364-107.578182-245.690182-241.92-250.053818l-2.443637-0.058182V517.818182h-267.636363V512c0-141.707636 112.581818-257.117091 253.172363-261.678545l2.827637-0.069819V0h11.636363z m-11.636363 261.888l-2.443637 0.058182c-131.607273 4.270545-237.521455 110.196364-241.792 241.803636l-0.058182 2.432H494.545455V261.888z" /></svg>