<?xml version="1.0" standalone="no"?><!DOCTYPE svg PUBLIC "-//W3C//DTD SVG 1.1//EN" "http://www.w3.org/Graphics/SVG/1.1/DTD/svg11.dtd"><svg class="icon" width="200px" height="200.00px" viewBox="0 0 1024 1024" version="1.1" xmlns="http://www.w3.org/2000/svg"><path d="M139.636364 0v163.025455c71.214545 3.060364 128 61.754182 128 133.701818s-56.785455 130.641455-128 133.701818v163.141818c71.214545 3.060364 128 61.754182 128 133.701818s-56.785455 130.641455-128 133.701818v157.533091h-11.636364V860.962909C56.785455 857.925818 0 799.232 0 727.272727c0-71.959273 56.785455-130.653091 128-133.701818V430.429091C56.785455 427.368727 0 368.674909 0 296.727273s56.785455-130.653091 128-133.701818V0h11.636364z m372.363636 0v163.025455c71.214545 3.060364 128 61.754182 128 133.701818s-56.785455 130.641455-128 133.701818v163.141818c71.214545 3.060364 128 61.754182 128 133.701818s-56.785455 130.641455-128 133.701818v157.533091h-11.636364V860.962909c-71.214545-3.037091-128-61.730909-128-133.690182 0-71.959273 56.785455-130.653091 128-133.701818V430.429091c-71.214545-3.048727-128-61.742545-128-133.701818s56.785455-130.653091 128-133.701818V0h11.636364z m384 593.570909c71.214545 3.060364 128 61.754182 128 133.701818s-56.785455 130.641455-128 133.701818v157.533091h-11.636364V860.962909c-71.214545-3.037091-128-61.730909-128-133.690182 0-71.959273 56.785455-130.653091 128-133.701818V430.429091c-71.214545-3.048727-128-61.742545-128-133.701818s56.785455-130.653091 128-133.701818V0h11.636364v163.025455c71.214545 3.060364 128 61.754182 128 133.701818s-56.785455 130.641455-128 133.701818v163.141818z m-768 11.659636c-64.779636 3.025455-116.363636 56.517818-116.363636 122.042182 0 65.524364 51.584 119.005091 116.363636 122.042182V605.230545z m11.636364 0v244.084364c64.779636-3.037091 116.363636-56.517818 116.363636-122.042182 0-65.524364-51.584-119.005091-116.363636-122.042182z m360.727272 0c-64.779636 3.025455-116.363636 56.517818-116.363636 122.042182 0 65.524364 51.584 119.005091 116.363636 122.042182V605.230545z m11.636364 0v244.084364c64.779636-3.037091 116.363636-56.517818 116.363636-122.042182 0-65.524364-51.584-119.005091-116.363636-122.042182z m372.363636 0c-64.779636 3.025455-116.363636 56.517818-116.363636 122.042182 0 65.524364 51.584 119.005091 116.363636 122.042182V605.230545z m11.636364 0v244.084364c64.779636-3.037091 116.363636-56.517818 116.363636-122.042182 0-65.524364-51.584-119.005091-116.363636-122.042182zM11.636364 296.727273c0 65.524364 51.584 119.005091 116.363636 122.042182V174.685091c-64.779636 3.025455-116.363636 56.517818-116.363636 122.042182z m128-122.042182v244.084364c64.779636-3.037091 116.363636-56.517818 116.363636-122.042182 0-65.524364-51.584-119.005091-116.363636-122.042182zM384 296.727273c0 65.524364 51.584 119.005091 116.363636 122.042182V174.685091c-64.779636 3.025455-116.363636 56.517818-116.363636 122.042182z m128-122.042182v244.084364c64.779636-3.037091 116.363636-56.517818 116.363636-122.042182 0-65.524364-51.584-119.005091-116.363636-122.042182zM768 296.727273c0 65.524364 51.584 119.005091 116.363636 122.042182V174.685091c-64.779636 3.025455-116.363636 56.517818-116.363636 122.042182z m128-122.042182v244.084364c64.779636-3.037091 116.363636-56.517818 116.363636-122.042182 0-65.524364-51.584-119.005091-116.363636-122.042182z" /></svg>