<?xml version="1.0" standalone="no"?><!DOCTYPE svg PUBLIC "-//W3C//DTD SVG 1.1//EN" "http://www.w3.org/Graphics/SVG/1.1/DTD/svg11.dtd"><svg class="icon" width="200px" height="200.00px" viewBox="0 0 1024 1024" version="1.1" xmlns="http://www.w3.org/2000/svg"><path d="M115.45098 70.27451l0.01004 90.463372c57.283765 2.570039 103.203137 48.77051 105.321411 106.164706h69.611922L320.451765 207.811765l8.944941 4.547764-27.748392 54.543059h59.020549L390.726275 207.811765l8.944941 4.547764-27.748392 54.543059H416.627451v10.039216h-49.814588l-36.341961 71.479216-8.95498-4.557804 34.04298-66.921412h-59.020549l-36.341961 71.479216-8.95498-4.557804 34.04298-66.921412-64.572235 0.010039c-2.981647 56.58102-48.549647 101.888-105.251137 104.427922v20.299294c57.283765 2.570039 103.203137 48.77051 105.321411 106.164706h69.611922L320.451765 448.752941l8.944941 4.547765-27.748392 54.543059h59.020549L390.726275 448.752941l8.944941 4.547765-27.748392 54.543059H416.627451v10.039215h-49.814588l-36.341961 71.479216-8.95498-4.557804 34.04298-66.921412h-59.020549l-36.341961 71.479216-8.95498-4.557804 34.04298-66.921412-64.572235 0.01004c-2.981647 56.58102-48.549647 101.888-105.251137 104.427921v30.33851c57.283765 2.570039 103.203137 48.77051 105.321411 106.164706h69.611922L320.451765 699.733333l8.944941 4.547765-27.748392 54.543059h59.020549L390.726275 699.733333l8.944941 4.547765-27.748392 54.543059H416.627451v10.039216h-49.814588l-36.341961 71.479215-8.95498-4.557804 34.04298-66.921411h-59.020549l-36.341961 71.479215-8.95498-4.557804 34.04298-66.921411-64.572235 0.010039c-2.981647 56.58102-48.549647 101.888-105.251137 104.427921L115.45098 953.72549h-10.039215v-80.424157C46.752627 870.671059 0 822.292078 0 762.980392s46.752627-107.690667 105.411765-110.320941V622.33098C46.752627 619.690667 0 571.311686 0 512s46.752627-107.690667 105.411765-110.320941V381.389804C46.752627 378.74949 0 330.37051 0 271.058824s46.752627-107.690667 105.411765-110.320942V70.27451h10.039215z m602.352942 0l0.010039 90.463372c57.283765 2.570039 103.203137 48.77051 105.321412 106.164706h69.611921L922.804706 207.811765l8.944941 4.547764-27.748392 54.543059h59.020549L993.079216 207.811765l8.944941 4.547764-27.748392 54.543059h49.593725v10.039216h-54.703686l-36.341961 71.479216-8.95498-4.557804 34.04298-66.921412h-59.020549l-36.341961 71.479216-8.95498-4.557804 34.04298-66.921412-64.572235 0.010039c-2.981647 56.58102-48.549647 101.888-105.251137 104.427922v20.299294c57.283765 2.570039 103.203137 48.77051 105.321412 106.164706h69.611921L922.804706 448.752941l8.944941 4.547765-27.748392 54.543059h59.020549L993.079216 448.752941l8.944941 4.547765-27.748392 54.543059h49.593725v10.039215h-54.703686l-36.341961 71.479216-8.95498-4.557804 34.04298-66.921412h-59.020549l-36.341961 71.479216-8.95498-4.557804 34.04298-66.921412-64.572235 0.01004c-2.981647 56.58102-48.549647 101.888-105.251137 104.427921v30.33851c57.283765 2.570039 103.203137 48.77051 105.321412 106.164706h69.611921L922.804706 699.733333l8.944941 4.547765-27.748392 54.543059h59.020549L993.079216 699.733333l8.944941 4.547765-27.748392 54.543059h49.593725v10.039216h-54.703686l-36.341961 71.479215-8.95498-4.557804 34.04298-66.921411h-59.020549l-36.341961 71.479215-8.95498-4.557804 34.04298-66.921411-64.572235 0.010039c-2.981647 56.58102-48.549647 101.888-105.251137 104.427921L717.803922 953.72549h-10.039216v-80.424157C649.105569 870.671059 602.352941 822.292078 602.352941 762.980392s46.752627-107.690667 105.411765-110.320941V622.33098C649.105569 619.690667 602.352941 571.311686 602.352941 512s46.752627-107.690667 105.411765-110.320941V381.389804C649.105569 378.74949 602.352941 330.37051 602.352941 271.058824s46.752627-107.690667 105.411765-110.320942V70.27451h10.039216zM115.46102 662.708706v200.543372C168.568471 860.631843 210.823529 816.740392 210.823529 762.980392c0-53.76-42.255059-97.651451-95.362509-100.271686z m-10.049255 0C52.304314 665.318902 10.039216 709.220392 10.039216 762.980392c0 53.76 42.265098 97.651451 95.372549 100.271686V662.708706z m602.352941 0c-53.107451 2.610196-95.372549 46.511686-95.372549 100.271686 0 53.76 42.265098 97.651451 95.372549 100.271686V662.708706z m10.049255 0v200.543372C770.921412 860.631843 813.176471 816.740392 813.176471 762.980392c0-53.76-42.255059-97.651451-95.36251-100.271686z m-10.049255-250.980392c-53.107451 2.610196-95.372549 46.511686-95.372549 100.271686 0 53.76 42.265098 97.651451 95.372549 100.271686V411.728314z m10.049255 0v200.543372C770.921412 609.651451 813.176471 565.76 813.176471 512c0-53.76-42.255059-97.651451-95.36251-100.271686z m-602.352941 0v200.543372C168.568471 609.651451 210.823529 565.76 210.823529 512c0-53.76-42.255059-97.651451-95.362509-100.271686z m-10.049255 0C52.304314 414.33851 10.039216 458.24 10.039216 512c0 53.76 42.265098 97.651451 95.372549 100.271686V411.728314z m10.049255-240.941177v200.543373C168.568471 368.710275 210.823529 324.818824 210.823529 271.058824c0-53.76-42.255059-97.651451-95.362509-100.271687z m602.352941 0v200.543373C770.921412 368.710275 813.176471 324.818824 813.176471 271.058824c0-53.76-42.255059-97.651451-95.36251-100.271687z m-612.402196 0C52.304314 173.397333 10.039216 217.298824 10.039216 271.058824c0 53.76 42.265098 97.651451 95.372549 100.271686V170.787137z m602.352941 0c-53.107451 2.610196-95.372549 46.511686-95.372549 100.271687 0 53.76 42.265098 97.651451 95.372549 100.271686V170.787137z" /></svg>