<?xml version="1.0" standalone="no"?><!DOCTYPE svg PUBLIC "-//W3C//DTD SVG 1.1//EN" "http://www.w3.org/Graphics/SVG/1.1/DTD/svg11.dtd"><svg class="icon" width="200px" height="200.00px" viewBox="0 0 1024 1024" version="1.1" xmlns="http://www.w3.org/2000/svg"><path d="M237.136842 383.579621h53.097095L322.506105 320.134737l9.604042 4.882863-29.79301 58.562021h63.369431L397.958737 320.134737l9.604042 4.882863-29.793011 58.562021H425.768421v10.778947h-53.485137l-39.019789 76.746106-9.614821-4.893642 36.55141-71.852464h-63.369431l-39.01979 76.746106-9.614821-4.893642 36.551411-71.852464-47.610611 0.010779V388.042105l-0.043116 3.125895c-1.606063 62.237642-51.178442 112.542989-113.125052 115.323958v21.795031c61.946611 2.780968 111.518989 53.086316 113.125052 115.334737L237.136842 646.736842l-0.043116 3.125895c-1.606063 62.237642-51.178442 112.542989-113.125052 115.323958V862.315789h-10.800506l0.010779-97.129094C50.197558 762.362611 0 710.418863 0 646.736842s50.197558-115.625768 113.178947-118.449853V506.502737C50.197558 503.667874 0 451.724126 0 388.042105s50.197558-115.625768 113.178947-118.449852V172.463158h10.778948l0.010779 97.129095c61.946611 2.780968 111.518989 53.086316 113.125052 115.334736l0.043116 3.104337v-4.451705z m592.842105 0h53.097095L915.348211 320.134737l9.604042 4.882863-29.793011 58.562021h63.369432L990.800842 320.134737l9.604042 4.882863-29.79301 58.562021h53.0432v10.778947h-58.529685l-39.019789 76.746106-9.614821-4.893642 36.55141-71.852464h-63.369431l-39.01979 76.746106-9.614821-4.893642 36.551411-71.852464-47.610611 0.010779-0.010779-6.327242-0.032336 3.125895c-1.606063 62.237642-51.178442 112.542989-113.125053 115.323958v21.795031c61.946611 2.780968 111.518989 53.086316 113.125053 115.334737L829.978947 646.736842l-0.032336 3.125895c-1.606063 62.237642-51.178442 112.542989-113.125053 115.323958V862.315789h-10.800505l0.010779-97.129094C643.039663 762.362611 592.842105 710.418863 592.842105 646.736842s50.197558-115.625768 113.178948-118.449853V506.502737C643.039663 503.667874 592.842105 451.724126 592.842105 388.042105s50.197558-115.625768 113.178948-118.449852V172.463158h10.778947l0.010779 97.129095c61.946611 2.780968 111.518989 53.086316 113.125053 115.334736l0.032336 3.104337 0.010779-4.451705zM113.178947 539.076716C56.158316 541.879242 10.778947 589.015579 10.778947 646.736842c0 57.721263 45.379368 104.846821 102.4 107.660126V539.076716z m10.789727 0v215.320252C180.989305 751.583663 226.357895 704.458105 226.357895 646.736842c0-57.721263-45.368589-104.846821-102.389221-107.660126z m582.052379 0c-57.020632 2.802526-102.4 49.938863-102.4 107.660126 0 57.721263 45.379368 104.846821 102.4 107.660126V539.076716z m10.789726 0v215.320252C773.831411 751.583663 819.2 704.458105 819.2 646.736842c0-57.721263-45.368589-104.846821-102.389221-107.660126zM397.969516 578.829474l9.593263 4.882863-29.793011 58.562021H425.768421v10.778947h-53.485137l-39.019789 76.746106-9.614821-4.893643 36.55141-71.852463h-63.369431l-39.01979 76.746106-9.614821-4.893643 36.551411-71.852463-47.610611 0.010779v-10.789726h53.097095L322.506105 578.829474l9.604042 4.882863-29.79301 58.562021h63.369431L397.958737 578.829474z m592.842105 0l9.593263 4.882863-29.79301 58.562021h53.0432v10.778947h-58.529685l-39.019789 76.746106-9.614821-4.893643 36.55141-71.852463h-63.369431l-39.01979 76.746106-9.614821-4.893643 36.551411-71.852463-47.610611 0.010779v-10.789726h53.097095L915.348211 578.829474l9.604042 4.882863-29.793011 58.562021h63.369432L990.800842 578.829474zM113.178947 280.381979C56.158316 283.184505 10.778947 330.320842 10.778947 388.042105c0 57.721263 45.379368 104.846821 102.4 107.660127V280.381979z m10.789727 0v215.320253C180.989305 492.888926 226.357895 445.763368 226.357895 388.042105c0-57.721263-45.368589-104.846821-102.389221-107.660126z m582.052379 0c-57.020632 2.802526-102.4 49.938863-102.4 107.660126 0 57.721263 45.379368 104.846821 102.4 107.660127V280.381979z m10.789726 0v215.320253C773.831411 492.888926 819.2 445.763368 819.2 388.042105c0-57.721263-45.368589-104.846821-102.389221-107.660126z" /></svg>