<?xml version="1.0" standalone="no"?><!DOCTYPE svg PUBLIC "-//W3C//DTD SVG 1.1//EN" "http://www.w3.org/Graphics/SVG/1.1/DTD/svg11.dtd"><svg class="icon" width="200px" height="200.00px" viewBox="0 0 1024 1024" version="1.1" xmlns="http://www.w3.org/2000/svg"><path d="M517.818182 0l0.011636 104.855273C585.821091 107.904 640 163.991273 640 232.727273c0 68.736-54.178909 124.823273-122.170182 127.872l0.011637 23.528727C585.821091 387.188364 640 443.264 640 512c0 68.736-54.178909 124.811636-122.158545 127.872v35.165091C585.821091 678.097455 640 734.173091 640 802.909091c0 68.736-54.178909 124.823273-122.170182 127.872L517.818182 1024h-11.636364v-93.218909C438.190545 927.732364 384 871.656727 384 802.909091c0-68.736 54.178909-124.823273 122.170182-127.872V639.883636C438.178909 636.823273 384 580.736 384 512c0-68.736 54.178909-124.823273 122.170182-127.872l0.011636-23.528727C438.190545 357.550545 384 301.474909 384 232.727273S438.190545 107.904 506.181818 104.855273V0h11.636364zM395.636364 802.909091c0 62.312727 48.989091 113.186909 110.545454 116.224l-0.011636-232.448C444.613818 689.722182 395.636364 740.596364 395.636364 802.909091z m122.205091-116.224v232.448C579.386182 916.096 628.363636 865.221818 628.363636 802.909091c0-62.301091-48.965818-113.175273-110.522181-116.224zM395.636364 512c0 62.312727 48.977455 113.186909 110.533818 116.224V395.776C444.613818 398.813091 395.636364 449.687273 395.636364 512z m122.205091-116.224v232.448C579.397818 625.175273 628.363636 574.301091 628.363636 512c0-62.301091-48.965818-113.175273-110.522181-116.224z m-11.659637-279.272727c-61.556364 3.025455-110.545455 53.911273-110.545454 116.224 0 62.312727 48.989091 113.186909 110.545454 116.224V116.503273z m11.648 0v232.448C579.386182 345.914182 628.363636 295.04 628.363636 232.727273c0-62.312727-48.977455-113.186909-110.533818-116.224z" /></svg>