<?xml version="1.0" standalone="no"?><!DOCTYPE svg PUBLIC "-//W3C//DTD SVG 1.1//EN" "http://www.w3.org/Graphics/SVG/1.1/DTD/svg11.dtd"><svg class="icon" width="200px" height="200.00px" viewBox="0 0 1024 1024" version="1.1" xmlns="http://www.w3.org/2000/svg"><path d="M529.066667 0l0.034133 273.442133C728.541867 282.385067 887.466667 446.907733 887.466667 648.533333c0 207.36-168.106667 375.466667-375.466667 375.466667S136.533333 855.893333 136.533333 648.533333C136.533333 446.8736 295.492267 282.385067 494.933333 273.442133V0h34.133334zM170.666667 648.533333c0 188.5184 152.814933 341.333333 341.333333 341.333334s341.333333-152.814933 341.333333-341.333334c0-182.784-143.6672-332.014933-324.232533-340.923733L529.066667 580.266667H819.2v34.133333H204.8v-34.133333h290.133333V307.6096C314.368 316.484267 170.666667 465.749333 170.666667 648.533333z m409.6 204.8v34.133334h-136.533334v-34.133334h136.533334z m102.4-136.533333v34.133333H341.333333v-34.133333h341.333334z" /></svg>