<?xml version="1.0" standalone="no"?><!DOCTYPE svg PUBLIC "-//W3C//DTD SVG 1.1//EN" "http://www.w3.org/Graphics/SVG/1.1/DTD/svg11.dtd"><svg class="icon" width="200px" height="200.00px" viewBox="0 0 1024 1024" version="1.1" xmlns="http://www.w3.org/2000/svg"><path d="M558.545455 1012.363636v11.636364h-104.727273v-11.636364h104.727273z m34.90909-58.181818v11.636364H418.909091v-11.636364h174.545454zM506.181818 0v261.818182C368.011636 261.818182 256 373.829818 256 512c0 134.283636 105.774545 243.84 238.545455 249.914182V512.232727H756.363636V512h11.636364c0 144.593455-117.224727 261.818182-261.818182 261.818182V896H628.363636v11.636364H384v-11.636364h110.545455V773.562182C355.351273 767.476364 244.363636 652.695273 244.363636 512c0-140.695273 110.987636-255.476364 250.181819-261.562182V0h11.636363z m249.902546 523.869091H506.181818V762.181818c134.190545 0 243.700364-105.658182 249.902546-238.312727z" /></svg>