<?xml version="1.0" standalone="no"?><!DOCTYPE svg PUBLIC "-//W3C//DTD SVG 1.1//EN" "http://www.w3.org/Graphics/SVG/1.1/DTD/svg11.dtd"><svg class="icon" width="200px" height="200.00px" viewBox="0 0 1024 1024" version="1.1" xmlns="http://www.w3.org/2000/svg"><path d="M139.636364 221.090909v163.025455c71.214545 3.060364 128 61.754182 128 133.701818s-56.785455 130.641455-128 133.701818v157.533091h-11.636364V651.508364C56.785455 648.471273 0 589.777455 0 517.818182c0-71.959273 56.785455-130.653091 128-133.701818V221.090909h11.636364z m372.363636 0v163.025455c71.214545 3.060364 128 61.754182 128 133.701818s-56.785455 130.641455-128 133.701818v157.533091h-11.636364V651.508364c-71.214545-3.037091-128-61.730909-128-133.690182 0-71.959273 56.785455-130.653091 128-133.701818V221.090909h11.636364z m384 0v163.025455c71.214545 3.060364 128 61.754182 128 133.701818s-56.785455 130.641455-128 133.701818v157.533091h-11.636364V651.508364c-71.214545-3.037091-128-61.730909-128-133.690182 0-71.959273 56.785455-130.653091 128-133.701818V221.090909h11.636364zM133.818182 395.636364C66.338909 395.636364 11.636364 450.338909 11.636364 517.818182S66.338909 640 133.818182 640 256 585.297455 256 517.818182 201.297455 395.636364 133.818182 395.636364z m372.363636 0C438.702545 395.636364 384 450.338909 384 517.818182S438.702545 640 506.181818 640 628.363636 585.297455 628.363636 517.818182 573.661091 395.636364 506.181818 395.636364z m384 0C822.702545 395.636364 768 450.338909 768 517.818182S822.702545 640 890.181818 640 1012.363636 585.297455 1012.363636 517.818182 957.661091 395.636364 890.181818 395.636364z" /></svg>